<?xml version="1.0" encoding="utf-8"?>
<!-- Generator: Adobe Illustrator 24.0.2, SVG Export Plug-In . SVG Version: 6.00 Build 0)  -->
<svg version="1.1" id="Слой_1" xmlns="http://www.w3.org/2000/svg" xmlns:xlink="http://www.w3.org/1999/xlink" x="0px" y="0px"
	 viewBox="0 0 1080 1080" style="enable-background:new 0 0 1080 1080;" xml:space="preserve">
<g>
	<path d="M540.61,602.7c107.58,0,215.16-0.04,322.73,0.12c5.28,0.01,6.64-1.37,6.63-6.6c-0.16-80.44-0.11-160.87-0.11-241.31
		c0-8.51,0-8.51,8.18-8.52c11.93-0.01,11.93-0.01,11.93,11.85c0,83.41-0.01,166.81,0.03,250.22c0,4.37-0.8,7.4-4.45,10.98
		c-34.51,33.84-68.52,68.2-102.72,102.35c-66.3,66.22-132.64,132.4-198.96,198.6c-10.66,10.64-21.3,21.29-31.97,31.91
		c-9.26,9.22-15.57,9.22-24.82-0.03C468.66,893.87,410.27,835.43,351.86,777C300.6,725.72,249.37,674.41,198,623.24
		c-5.33-5.31-8.04-10.57-8-18.66c0.4-83.4,0.25-166.81,0.25-250.21c0-7.95,0.01-7.95,8.1-7.96c12.25-0.02,12.25-0.02,12.25,12.2
		c0,79.05,0.02,158.09-0.06,237.14c-0.01,4.53,0.25,7.15,6.15,7.14c107.97-0.18,215.95-0.13,323.92-0.13
		C540.61,602.74,540.61,602.72,540.61,602.7z M223.79,623.71c2.3,2.43,3.7,3.98,5.18,5.46c60.66,60.64,121.35,121.25,181.93,181.97
		c3.2,3.21,6.42,4.52,10.93,4.51c78.65-0.11,157.3-0.11,235.94-0.01c4.27,0.01,7.36-1.15,10.44-4.24
		c60.79-60.8,121.69-121.49,182.56-182.21c1.46-1.46,2.83-3.02,5.12-5.48C644.72,623.71,434.97,623.71,223.79,623.71z"/>
	<path d="M708.66,145.41c0,8.32,0.01,15.63,0,22.94c-0.02,11.76-3.06,14.89-14.74,14.9c-47.75,0.03-95.49-0.15-143.24,0.07
		c-35.69,0.16-69.78,7.25-100.28,26.7c-46.32,29.54-74.82,71.17-82.25,126.01c-6.84,50.47,5.13,96.6,37.97,135.52
		c44.48,52.71,101.98,74.37,170.02,61.35c75.58-14.47,131.01-74.43,140.43-150.89c6.89-55.91-9.73-104.92-49.3-145.61
		c-6.52-6.71-7.99-12.98-3.66-17.55c4.93-5.2,11.42-4.4,18.46,2.89c36.11,37.41,55.49,82.04,56.38,134.14
		c0.89,51.98-15.77,98.04-50.89,136.35c-46.17,50.37-104.1,72.19-171.83,62.97c-69.21-9.42-119.92-47.15-150.63-109.55
		c-25.96-52.74-27.62-107.91-3.8-161.69c32.5-73.36,90.01-114.64,170.36-119.61c48.36-2.99,97.01-1.14,145.53-1.54
		c12.34-0.1,10.84,1.77,11.02-11.12c0.07-4.95-0.13-9.91,0.08-14.86c0.32-7.56,4.47-11.93,11.91-11.97
		c25.95-0.14,51.91-0.15,77.86,0c8.02,0.05,12.23,4.61,12.41,12.8c0.14,6.14,0.37,12.31-0.05,18.42c-0.38,5.61,1.87,7.21,7.15,6.83
		c5.52-0.39,11.09-0.19,16.64-0.06c13.11,0.32,19.76,6.97,19.76,20.06c0.05,76.08,0.04,152.16,0.04,228.24
		c0,29.72-0.13,59.44,0.1,89.15c0.04,5.14-1.26,6.88-6.58,6.8c-13.93-0.22-13.93,0.01-13.93-14.19c0-100.84-0.05-201.69,0.12-302.53
		c0.01-5.81-1.68-7.61-7.36-7.25c-7.1,0.45-14.26,0.14-21.39,0.1c-12.04-0.06-14.92-3.01-14.96-15.28
		c-0.02-6.14,0.17-12.29-0.15-18.42c-0.07-1.43-1.81-3.96-2.81-3.97C747.87,145.35,728.71,145.41,708.66,145.41z"/>
	<path d="M499.2,250.49c21.58,0,42.84-1.41,63.82,0.37c23.56,2,39.03,18.6,39.47,42.06c0.2,10.67,0.34,21.39-0.53,32
		c-0.87,10.59-6.53,18.9-16.13,24.79c1.45,1.29,2.32,2.34,3.42,2.99c8.37,4.92,14.5,12.29,15.07,21.64
		c1.07,17.48,2.36,35.36-0.11,52.54c-2.97,20.67-17.18,32.43-38.67,33.74c-21.87,1.33-43.88,0.29-66.34,0.29
		C499.2,391.28,499.2,320.9,499.2,250.49z M526.51,436.93c11.59,0,22.49,0.75,33.23-0.21c10.35-0.93,17.82-9.23,18.33-19.52
		c0.56-11.25,0.55-22.57-0.03-33.81c-0.49-9.52-8.15-19.17-17.16-20.45c-11.22-1.58-22.7-1.37-34.37-1.94
		C526.51,387.16,526.51,412.01,526.51,436.93z M526.54,339.46c10.23,0,19.77,0.81,29.1-0.21c10.75-1.18,18.17-9.43,19.06-20.37
		c0.69-8.43,0.66-17.01-0.05-25.44c-0.72-8.57-5.75-15.62-14.04-17.27c-11.02-2.19-22.49-2.17-34.07-3.12
		C526.54,296.3,526.54,317.79,526.54,339.46z"/>
	<path d="M249.18,341.1c0-52.48-0.03-104.96,0.02-157.44c0.01-13.53,6.6-20.13,20.07-20.15c41.59-0.05,83.18-0.04,124.76,0.01
		c7.47,0.01,11.9,4.02,11.89,10.28c-0.02,5.71-4.67,9.74-11.67,10.05c-1.78,0.08-3.56,0.03-5.35,0.03
		c-37.43,0-74.86,0.12-112.29-0.13c-5.79-0.04-7.21,1.69-7.21,7.33c0.16,102.78,0.12,205.56,0.11,308.34c0,7.76-0.01,7.76-7.65,7.82
		c-12.7,0.09-12.7,0.09-12.7-12.87C249.17,443.28,249.17,392.19,249.18,341.1z"/>
</g>
</svg>
